<svg width="42" height="42" viewBox="0 0 42 42" fill="none" xmlns="http://www.w3.org/2000/svg">
<path d="M39.3077 7.53841H2.69235C1.20504 7.53841 0 6.33338 0 4.84615C0 3.35892 1.20504 2.1538 2.69235 2.1538H39.3077C40.795 2.1538 42 3.35884 42 4.84615C42 6.33346 40.795 7.53841 39.3077 7.53841Z" fill="white"/>
<path d="M24.2308 23.6923H2.69235C1.20504 23.6923 0 22.4872 0 21C0 19.5128 1.20504 18.3076 2.69235 18.3076H24.2308C25.718 18.3076 26.9231 19.5127 26.9231 21C26.9231 22.4873 25.718 23.6923 24.2308 23.6923Z" fill="white"/>
<path d="M39.3077 23.6923H35C33.5128 23.6923 32.3077 22.4873 32.3077 21C32.3077 19.5127 33.5127 18.3076 35 18.3076H39.3077C40.795 18.3076 42 19.5127 42 21C42 22.4873 40.795 23.6923 39.3077 23.6923Z" fill="white"/>
<path d="M39.3077 39.8462H2.69235C1.20504 39.8462 0 38.6411 0 37.1538C0 35.6666 1.20504 34.4615 2.69235 34.4615H39.3077C40.795 34.4615 42 35.6665 42 37.1538C42 38.6411 40.795 39.8462 39.3077 39.8462Z" fill="white"/>
</svg>
